<?xml version="1.0" standalone="no"?><!DOCTYPE svg PUBLIC "-//W3C//DTD SVG 1.1//EN" "http://www.w3.org/Graphics/SVG/1.1/DTD/svg11.dtd"><svg t="1573529012968" class="icon" viewBox="0 0 1024 1024" version="1.1" xmlns="http://www.w3.org/2000/svg" p-id="549" width="32" height="32" xmlns:xlink="http://www.w3.org/1999/xlink"><defs><style type="text/css"></style></defs><path d="M129.2236053 467.84492626c42.85372036 4.32137875 171.46632737 6.43063603 385.83780703 6.43063603 214.32004778 0 342.93265446-2.10924322 385.83782096-6.43063603v96.45945514c-42.90516636-4.26993253-171.51777324-6.43063603-385.83782096-6.43062184-214.37149351 0-342.98410077 2.16068931-385.83780703 6.43062184v-96.45945514zM778.71726221 294.21790959h-527.31168581v109.32072714h-102.89009136c4.26993253-42.85372036 6.43063603-76.07006591 6.43063618-99.68335237 0-23.5618264-2.16068931-56.77817185-6.43063618-99.68333802 42.85372036 4.32137875 150.01374412 6.43063603 321.53151745 6.43062194l-57.8756673-67.53018661 102.89007714-41.80767055 70.73693943 90.02881922-32.15315174 19.29189398c175.73626012 0 285.05697307-2.10924322 327.96213937-6.43063607-4.32137875 42.90516636-6.43063603 76.1043679-6.43062155 99.68335225 0 23.61327236 2.10924322 56.81247396 6.43062155 99.68333813h-102.89007718v-109.30356904z m-160.76575862 250.79459215h102.89007723c-12.8612577 42.90516636-23.61327236 73.96082237-32.15315188 93.25270239a734.2236377 734.2236377 0 0 1-28.94641271 57.87568143c-10.75201456 19.29189387-30.04390834 41.80767081-57.8756674 67.53018621-27.88321895 25.72251573-52.54254138 45.01440974-73.96082259 57.87568171-21.45258292 12.8612577-41.80767081 22.51577669-61.09956449 28.94639867s-40.74447706 12.8612577-64.30630349 19.29189392c-23.61327236 6.43063603-50.38183798 11.76376217-80.39144438 16.08515498-30.04390834 4.26993253-72.8976288 8.53987921-128.61260716 12.86125796-8.59132515-25.72251573-21.45258292-57.87566752-38.58378762-96.45945509 59.98492505 4.26993253 100.72938774 5.33314027 122.181985 3.22388264a865.3399123 865.3399123 0 0 0 67.53018667-9.6545188c23.5618264-4.32137875 43.9169138-9.6545189 61.09956442-16.08514081 17.13120468-6.43063603 36.42308428-15.02194721 57.87566759-25.72253015 21.40113716-10.70056861 43.9169138-28.94641286 67.53020056-54.6689284 23.5618264-25.72251573 40.69303113-47.1236528 51.44503153-64.30630351 10.71771241-17.16549267 22.51577669-47.15795506 35.37704872-90.04596315zM470.04700249 326.37106135l102.8900913 38.58378753c-21.45258292 34.31384099-41.80767081 67.53018645-61.09956439 99.6833383s-55.76642413 87.91957605-109.32071311 167.19639463c49.28435633 19.29189387 93.25271628 36.47453049 131.83648995 51.44504572 38.58378775 15.02194721 79.27680476 32.15315149 122.18197085 51.44503156 42.85372036 19.29189387 110.38390693 46.07760321 202.57342953 80.39145839l-61.09956446 90.0288194c-77.16756126-34.31384099-142.57136057-64.30630353-196.14279333-90.0288194-53.60573498-25.72251573-101.82688353-47.17509904-144.69774802-64.30630344-42.90516636-17.13120468-76.1043679-31.05565621-99.68335246-41.80767059-23.61327236-10.70056861-56.81247396-24.62501984-99.6833379-41.80767093a921.19207031 921.19207031 0 0 0 80.39144402-106.11397396 2005.0533727 2005.0533727 0 0 0 64.30630379-106.11397416c19.3261817-34.26239509 41.82481449-77.15041737 67.54734423-128.59546305z" fill="#1296db" p-id="550"></path></svg>